<svg width="184" height="36" viewBox="0 0 184 36" fill="none" xmlns="http://www.w3.org/2000/svg">
<g clip-path="url(#clip0_151_5958)">
<path d="M14.2034 10.0215V25.8935H12.8093L4.77901 15.8263V25.896H2V10.024H3.39411L11.4162 20.0938V10.0215H14.2034Z" fill="white"/>
<path d="M24.1779 10.0107L29.4568 25.8962H26.7152L25.9064 23.4923H19.6887L18.8892 25.8962H16.1384L21.4271 10.0107H24.1779ZM20.6834 20.4901H24.9113L22.8011 14.142L20.6834 20.4901Z" fill="white"/>
<path d="M41.7831 10V13.0656H37.3959V25.8931H34.6082V13.0656H30.2307V10H41.7831Z" fill="white"/>
<path d="M55.0018 10V18.6182C55.0018 22.7059 52.7719 25.8963 49.2211 25.8963C45.7732 25.8963 43.4495 22.7603 43.4495 18.6182V10H46.2382V18.4634C46.2382 20.5907 47.1304 22.8282 49.2308 22.8282C51.2103 22.8282 52.212 20.7565 52.212 18.4634V10H55.0018Z" fill="white"/>
<path d="M66.5248 25.8961L63.3648 19.4602H60.892V25.8961H58.1135V10.0241H64.889C65.4243 9.99748 65.9585 10.102 66.458 10.3311C66.9575 10.5603 67.4114 10.909 67.7911 11.3554C68.1708 11.8017 68.4682 12.3361 68.6644 12.9248C68.8607 13.5135 68.9516 14.1438 68.9314 14.7761C68.9724 15.7419 68.7397 16.6964 68.2702 17.4888C67.8006 18.2811 67.1209 18.8662 66.3384 19.1517L69.6448 25.8986L66.5248 25.8961ZM60.892 16.4689H64.5448C64.751 16.5036 64.9611 16.4854 65.1609 16.4157C65.3607 16.346 65.5454 16.2263 65.7025 16.0648C65.8596 15.9033 65.9855 15.7038 66.0715 15.4798C66.1575 15.2558 66.2017 15.0125 66.201 14.7666C66.2004 14.5206 66.1549 14.2777 66.0676 14.0543C65.9804 13.831 65.8535 13.6324 65.6955 13.4721C65.5375 13.3118 65.3521 13.1936 65.152 13.1254C64.9518 13.0572 64.7416 13.0406 64.5355 13.0769H60.892V16.4689Z" fill="white"/>
<path d="M81.6596 10.0107V13.068H75.0723V15.6844H79.9799V18.7416H75.0723V22.8376H81.6624V25.8949H72.2852V10.0107H81.6596Z" fill="white"/>
<path d="M103.2 10.1145V26H100.7V15.9635L96.1173 21.9014L91.5355 15.9635V26H88.8682V10.1145H90.2715L96.1173 17.9577L101.955 10.1145H103.2Z" fill="white"/>
<path d="M112.672 10.1145C113.999 10.1301 115.293 10.6091 116.391 11.4913C117.488 12.3735 118.34 13.6195 118.839 15.0722C119.338 16.5249 119.462 18.1195 119.195 19.6551C118.927 21.1907 118.282 22.5986 117.338 23.7016C116.395 24.8046 115.196 25.5533 113.893 25.8533C112.59 26.1534 111.24 25.9915 110.015 25.388C108.79 24.7844 107.743 23.7663 107.007 22.4617C106.271 21.1572 105.878 19.6246 105.878 18.0569C105.862 17.0021 106.027 15.9544 106.364 14.9772C106.701 13.9999 107.202 13.1134 107.837 12.3711C108.472 11.6288 109.228 11.0462 110.059 10.6583C110.889 10.2705 111.778 10.0855 112.672 10.1145ZM112.672 22.9977C115.153 22.9977 116.566 20.727 116.566 18.0569C116.566 15.1219 114.886 13.1161 112.672 13.1161C110.209 13.1161 108.769 15.3869 108.769 18.0569C108.768 20.7494 110.302 22.9952 112.672 22.9952V22.9977Z" fill="white"/>
<path d="M130.848 17.4368C131.456 17.7876 131.972 18.3281 132.339 18.9998C132.706 19.6716 132.91 20.4489 132.93 21.2479C132.952 21.8806 132.862 22.5116 132.666 23.1011C132.47 23.6906 132.173 24.2256 131.793 24.6723C131.413 25.119 130.958 25.4677 130.458 25.6962C129.958 25.9248 129.423 26.0282 128.888 26H122.112V10.126H127.641C128.175 10.1015 128.709 10.2075 129.207 10.4375C129.705 10.6674 130.158 11.0164 130.536 11.4625C130.915 11.9086 131.212 12.4422 131.407 13.03C131.603 13.6177 131.694 14.2468 131.675 14.878C131.656 15.8177 131.365 16.7213 130.848 17.4368ZM124.89 13.1827V16.5612H127.669C128.049 16.5509 128.411 16.3716 128.683 16.0594C128.955 15.7471 129.118 15.325 129.137 14.8774C129.126 14.6355 129.074 14.3988 128.984 14.1814C128.893 13.964 128.766 13.7704 128.611 13.6122C128.456 13.454 128.275 13.3344 128.08 13.2606C127.884 13.1868 127.678 13.1603 127.474 13.1827H124.89ZM128.533 22.942C128.739 22.9783 128.949 22.9618 129.15 22.8937C129.35 22.8255 129.535 22.7073 129.693 22.547C129.851 22.3868 129.978 22.1882 130.065 21.9649C130.153 21.7415 130.198 21.4986 130.199 21.2527C130.2 21.0067 130.155 20.7635 130.069 20.5394C129.983 20.3154 129.858 20.1159 129.701 19.9543C129.543 19.7928 129.359 19.6731 129.159 19.6033C128.959 19.5336 128.749 19.5154 128.543 19.55H124.89V22.942H128.533Z" fill="white"/>
<path d="M135.4 10.1145H138.188V26H135.4V10.1145Z" fill="white"/>
<path d="M144.526 10.1038V22.9313H151.116V25.9994H141.739V10.1038H144.526Z" fill="white"/>
<path d="M153.102 10.1145H155.89V26H153.102V10.1145Z" fill="white"/>
<path d="M169.461 10.1038V13.1719H165.073V25.9994H162.285V13.1719H157.908V10.1038H169.461Z" fill="white"/>
<path d="M182 10.126L177.307 18.19V25.998H174.528V18.19L169.843 10.126H173.003L175.922 15.2658L178.84 10.126H182Z" fill="white"/>
</g>
<defs>
<clipPath id="clip0_151_5958">
<rect width="180" height="16" fill="white" transform="translate(2 10)"/>
</clipPath>
</defs>
</svg>
