<svg width="180" height="16" viewBox="0 0 180 16" fill="none" xmlns="http://www.w3.org/2000/svg">
<g clip-path="url(#clip0_151_5855)">
<path d="M12.2034 0.0214844V15.8935H10.8093L2.77901 5.82627V15.896H0V0.024043H1.39411L9.41623 10.0938V0.0214844H12.2034Z" fill="#24BFB6"/>
<path d="M22.1779 0.0107422L27.4568 15.8962H24.7152L23.9064 13.4923H17.6887L16.8892 15.8962H14.1384L19.4271 0.0107422H22.1779ZM18.6834 10.4901H22.9113L20.8011 4.14195L18.6834 10.4901Z" fill="#24BFB6"/>
<path d="M39.7831 0V3.06561H35.3959V15.8931H32.6082V3.06561H28.2307V0H39.7831Z" fill="#24BFB6"/>
<path d="M53.0018 0V8.61824C53.0018 12.7059 50.7719 15.8963 47.2211 15.8963C43.7732 15.8963 41.4495 12.7603 41.4495 8.61824V0H44.2382V8.46336C44.2382 10.5907 45.1304 12.8282 47.2308 12.8282C49.2103 12.8282 50.212 10.7565 50.212 8.46336V0H53.0018Z" fill="#24BFB6"/>
<path d="M64.5248 15.8961L61.3648 9.46023H58.892V15.8961H56.1135V0.0240716H62.889C63.4243 -0.00252399 63.9585 0.102022 64.458 0.331142C64.9575 0.560262 65.4114 0.908983 65.7911 1.35536C66.1708 1.80174 66.4682 2.3361 66.6644 2.92481C66.8607 3.51353 66.9516 4.14383 66.9314 4.77606C66.9724 5.74193 66.7397 6.6964 66.2702 7.48876C65.8006 8.28112 65.1209 8.86625 64.3384 9.15175L67.6448 15.8986L64.5248 15.8961ZM58.892 6.46888H62.5448C62.751 6.50356 62.9611 6.48543 63.1609 6.41571C63.3607 6.346 63.5454 6.22632 63.7025 6.06483C63.8596 5.90334 63.9855 5.70381 64.0715 5.47979C64.1575 5.25578 64.2017 5.01253 64.201 4.76657C64.2004 4.52061 64.1549 4.2777 64.0676 4.05435C63.9804 3.83099 63.8535 3.63242 63.6955 3.47212C63.5375 3.31182 63.3521 3.19356 63.152 3.12536C62.9518 3.05716 62.7416 3.04062 62.5355 3.07686H58.892V6.46888Z" fill="#24BFB6"/>
<path d="M79.6596 0.0107422V3.06803H73.0723V5.68436H77.9799V8.74164H73.0723V12.8376H79.6624V15.8949H70.2852V0.0107422H79.6596Z" fill="#24BFB6"/>
<path d="M101.2 0.114502V16H98.6997V5.96347L94.1173 11.9014L89.5355 5.96347V16H86.8682V0.114502H88.2715L94.1173 7.95771L99.9545 0.114502H101.2Z" fill="#24BFB6"/>
<path d="M110.672 0.114532C111.999 0.130068 113.293 0.609117 114.391 1.49133C115.488 2.37354 116.34 3.61947 116.839 5.07221C117.338 6.52495 117.462 8.11952 117.195 9.65512C116.927 11.1907 116.282 12.5986 115.338 13.7016C114.395 14.8046 113.196 15.5533 111.893 15.8533C110.59 16.1534 109.24 15.9915 108.015 15.388C106.79 14.7844 105.743 13.7663 105.007 12.4617C104.271 11.1572 103.878 9.62458 103.878 8.05693C103.862 7.00208 104.027 5.95441 104.364 4.97717C104.701 3.99993 105.202 3.11341 105.837 2.37111C106.472 1.62882 107.228 1.04616 108.059 0.658321C108.889 0.270478 109.778 0.0854856 110.672 0.114532ZM110.672 12.9977C113.153 12.9977 114.566 10.727 114.566 8.05693C114.566 5.12189 112.886 3.11613 110.672 3.11613C108.209 3.11613 106.769 5.38685 106.769 8.05693C106.768 10.7494 108.302 12.9952 110.672 12.9952V12.9977Z" fill="#24BFB6"/>
<path d="M128.848 7.43675C129.456 7.7876 129.972 8.32811 130.339 8.99984C130.706 9.67157 130.91 10.4489 130.93 11.2479C130.952 11.8806 130.862 12.5116 130.666 13.1011C130.47 13.6906 130.173 14.2256 129.793 14.6723C129.413 15.119 128.958 15.4677 128.458 15.6962C127.958 15.9248 127.423 16.0282 126.888 16H120.112V0.12603H125.641C126.175 0.101464 126.709 0.207483 127.207 0.437456C127.705 0.66743 128.158 1.01641 128.536 1.46251C128.915 1.90862 129.212 2.44223 129.407 3.02996C129.603 3.61768 129.694 4.24684 129.675 4.87802C129.656 5.81774 129.365 6.72133 128.848 7.43675ZM122.89 3.18267V6.56123H125.669C126.049 6.55086 126.411 6.37161 126.683 6.05937C126.955 5.74713 127.118 5.32496 127.137 4.8774C127.126 4.63554 127.074 4.39883 126.984 4.18144C126.893 3.96405 126.766 3.77043 126.611 3.6122C126.456 3.45397 126.275 3.33437 126.08 3.26056C125.884 3.18676 125.678 3.16027 125.474 3.18267H122.89ZM126.533 12.942C126.739 12.9783 126.949 12.9618 127.15 12.8937C127.35 12.8255 127.535 12.7073 127.693 12.547C127.851 12.3868 127.978 12.1882 128.065 11.9649C128.153 11.7415 128.198 11.4986 128.199 11.2527C128.2 11.0067 128.155 10.7635 128.069 10.5394C127.983 10.3154 127.858 10.1159 127.701 9.95433C127.543 9.79281 127.359 9.6731 127.159 9.60333C126.959 9.53357 126.749 9.5154 126.543 9.55003H122.89V12.942H126.533Z" fill="#24BFB6"/>
<path d="M133.4 0.114502H136.188V16H133.4V0.114502Z" fill="#24BFB6"/>
<path d="M142.526 0.10376V12.9313H149.116V15.9994H139.739V0.10376H142.526Z" fill="#24BFB6"/>
<path d="M151.102 0.114502H153.89V16H151.102V0.114502Z" fill="#24BFB6"/>
<path d="M167.461 0.10376V3.17192H163.073V15.9994H160.285V3.17192H155.908V0.10376H167.461Z" fill="#24BFB6"/>
<path d="M180 0.125977L175.307 8.18998V15.998H172.528V8.18998L167.843 0.125977H171.003L173.922 5.26582L176.84 0.125977H180Z" fill="#24BFB6"/>
</g>
<defs>
<clipPath id="clip0_151_5855">
<rect width="180" height="16" fill="white"/>
</clipPath>
</defs>
</svg>
